<?xml version="1.0" encoding="utf-8"?>
<svg version="1.1" xmlns:xlink="http://www.w3.org/1999/xlink" width="12px" height="12px" viewBox="633 585.5  12 12" xmlns="http://www.w3.org/2000/svg">
  <path d="M 639 585.5  C 642.36 585.5  645 588.14  645 591.5  C 645 594.86  642.36 597.5  639 597.5  C 635.64 597.5  633 594.86  633 591.5  C 633 588.14  635.64 585.5  639 585.5  Z " fill-rule="nonzero" fill="#ffffff" stroke="none" />
  <path d="M 639 586  C 642.08 586  644.5 588.42  644.5 591.5  C 644.5 594.58  642.08 597  639 597  C 635.92 597  633.5 594.58  633.5 591.5  C 633.5 588.42  635.92 586  639 586  Z " stroke-width="1" stroke="#797979" fill="none" />
  <path d="M 639 594.5  C 637.32 594.5  636 593.18  636 591.5  C 636 589.82  637.32 588.5  639 588.5  C 640.68 588.5  642 589.82  642 591.5  C 642 593.18  640.68 594.5  639 594.5  " fill-rule="nonzero" fill="#797979" stroke="none" />
</svg>